<svg width="48" height="48" viewBox="0 0 48 48" fill="none" xmlns="http://www.w3.org/2000/svg">
  <path d="M12 14V12C12 11.4696 12.2107 10.9609 12.5858 10.5858C12.9609 10.2107 13.4696 10 14 10H34C34.5304 10 35.0391 10.2107 35.4142 10.5858C35.7893 10.9609 36 11.4696 36 12V36C36 36.5304 35.7893 37.0391 35.4142 37.4142C35.0391 37.7893 34.5304 38 34 38H14C13.4696 38 12.9609 37.7893 12.5858 37.4142C12.2107 37.0391 12 36.5304 12 36V34" stroke="white" stroke-width="2"/>
  <path d="M24 24H24.01" stroke="white" stroke-width="2"/>
  <path d="M18 30H30" stroke="white" stroke-width="2"/>
</svg>
